<mxfile host="app.diagrams.net" modified="2023-05-14T16:52:48.879Z" agent="Mozilla/5.0 (Windows NT 10.0; Win64; x64) AppleWebKit/537.36 (KHTML, like Gecko) Chrome/113.0.0.0 Safari/537.36" etag="MJDVYFCGj19nTUAA2Px7" version="21.3.0" type="device">
  <diagram id="C5RBs43oDa-KdzZeNtuy" name="Page-1">
    <mxGraphModel dx="1723" dy="1914" grid="1" gridSize="10" guides="1" tooltips="1" connect="1" arrows="1" fold="1" page="1" pageScale="1" pageWidth="827" pageHeight="1169" math="0" shadow="0">
      <root>
        <mxCell id="WIyWlLk6GJQsqaUBKTNV-0" />
        <mxCell id="WIyWlLk6GJQsqaUBKTNV-1" parent="WIyWlLk6GJQsqaUBKTNV-0" />
        <mxCell id="mi494YcEKEmCbfz_SDU5-4" value="Trabajador" style="swimlane;fontStyle=1;align=center;verticalAlign=top;childLayout=stackLayout;horizontal=1;startSize=26;horizontalStack=0;resizeParent=1;resizeParentMax=0;resizeLast=0;collapsible=1;marginBottom=0;whiteSpace=wrap;html=1;" parent="WIyWlLk6GJQsqaUBKTNV-1" vertex="1">
          <mxGeometry x="440" y="46" width="160" height="236" as="geometry" />
        </mxCell>
        <mxCell id="mi494YcEKEmCbfz_SDU5-5" value="- nombre:String&lt;br style=&quot;border-color: var(--border-color);&quot;&gt;- email: String&lt;br style=&quot;border-color: var(--border-color);&quot;&gt;- contraseña: String&lt;br&gt;- telefono: int" style="text;strokeColor=none;fillColor=none;align=left;verticalAlign=top;spacingLeft=4;spacingRight=4;overflow=hidden;rotatable=0;points=[[0,0.5],[1,0.5]];portConstraint=eastwest;whiteSpace=wrap;html=1;" parent="mi494YcEKEmCbfz_SDU5-4" vertex="1">
          <mxGeometry y="26" width="160" height="114" as="geometry" />
        </mxCell>
        <mxCell id="mi494YcEKEmCbfz_SDU5-6" value="" style="line;strokeWidth=1;fillColor=none;align=left;verticalAlign=middle;spacingTop=-1;spacingLeft=3;spacingRight=3;rotatable=0;labelPosition=right;points=[];portConstraint=eastwest;strokeColor=inherit;" parent="mi494YcEKEmCbfz_SDU5-4" vertex="1">
          <mxGeometry y="140" width="160" height="8" as="geometry" />
        </mxCell>
        <mxCell id="mi494YcEKEmCbfz_SDU5-7" value="- ocuparMesa()&lt;br&gt;- desocuparMesa()&lt;br&gt;- registrar()&lt;br style=&quot;border-color: var(--border-color);&quot;&gt;- eliminar()" style="text;strokeColor=none;fillColor=none;align=left;verticalAlign=top;spacingLeft=4;spacingRight=4;overflow=hidden;rotatable=0;points=[[0,0.5],[1,0.5]];portConstraint=eastwest;whiteSpace=wrap;html=1;" parent="mi494YcEKEmCbfz_SDU5-4" vertex="1">
          <mxGeometry y="148" width="160" height="88" as="geometry" />
        </mxCell>
        <mxCell id="mi494YcEKEmCbfz_SDU5-35" value="&lt;p style=&quot;margin:0px;margin-top:6px;text-align:center;&quot;&gt;&lt;b&gt;&amp;lt;&amp;lt;enum&amp;gt;&amp;gt;&lt;/b&gt;&lt;/p&gt;&lt;p style=&quot;margin:0px;margin-top:6px;text-align:center;&quot;&gt;&lt;b&gt;Comidas&lt;/b&gt;&lt;/p&gt;&lt;hr&gt;&lt;p style=&quot;margin:0px;margin-left:8px;&quot;&gt;Española&lt;/p&gt;&lt;p style=&quot;margin:0px;margin-left:8px;&quot;&gt;Latina&lt;/p&gt;&lt;p style=&quot;margin:0px;margin-left:8px;&quot;&gt;Italiana&lt;/p&gt;&lt;p style=&quot;margin:0px;margin-left:8px;&quot;&gt;Carnes&lt;/p&gt;&lt;p style=&quot;margin:0px;margin-left:8px;&quot;&gt;Pescados&lt;/p&gt;&lt;p style=&quot;margin:0px;margin-left:8px;&quot;&gt;Vegetariana&lt;/p&gt;&lt;p style=&quot;margin:0px;margin-left:8px;&quot;&gt;Vegana&lt;/p&gt;" style="align=left;overflow=fill;html=1;dropTarget=0;whiteSpace=wrap;" parent="WIyWlLk6GJQsqaUBKTNV-1" vertex="1">
          <mxGeometry x="1190" y="-120" width="180" height="162" as="geometry" />
        </mxCell>
        <mxCell id="mi494YcEKEmCbfz_SDU5-36" value="" style="shape=component;jettyWidth=8;jettyHeight=4;" parent="mi494YcEKEmCbfz_SDU5-35" vertex="1">
          <mxGeometry x="1" width="20" height="20" relative="1" as="geometry">
            <mxPoint x="-24" y="4" as="offset" />
          </mxGeometry>
        </mxCell>
        <mxCell id="mi494YcEKEmCbfz_SDU5-52" value="Mesa" style="swimlane;fontStyle=0;childLayout=stackLayout;horizontal=1;startSize=26;fillColor=none;horizontalStack=0;resizeParent=1;resizeParentMax=0;resizeLast=0;collapsible=1;marginBottom=0;whiteSpace=wrap;html=1;" parent="WIyWlLk6GJQsqaUBKTNV-1" vertex="1">
          <mxGeometry x="667" y="280" width="170" height="140" as="geometry" />
        </mxCell>
        <mxCell id="mi494YcEKEmCbfz_SDU5-53" value="- id: short&lt;br&gt;- capacidad: byte&amp;nbsp;&lt;br&gt;- estáOcupada: booelan" style="text;strokeColor=none;fillColor=none;align=left;verticalAlign=top;spacingLeft=4;spacingRight=4;overflow=hidden;rotatable=0;points=[[0,0.5],[1,0.5]];portConstraint=eastwest;whiteSpace=wrap;html=1;" parent="mi494YcEKEmCbfz_SDU5-52" vertex="1">
          <mxGeometry y="26" width="170" height="114" as="geometry" />
        </mxCell>
        <mxCell id="mi494YcEKEmCbfz_SDU5-78" value="" style="endArrow=diamondThin;endFill=0;endSize=24;html=1;rounded=0;entryX=0.044;entryY=1.025;entryDx=0;entryDy=0;entryPerimeter=0;exitX=0.5;exitY=0;exitDx=0;exitDy=0;" parent="WIyWlLk6GJQsqaUBKTNV-1" source="mi494YcEKEmCbfz_SDU5-52" target="ErS3TPGjbUPUeidKYd08-68" edge="1">
          <mxGeometry width="160" relative="1" as="geometry">
            <mxPoint x="700" y="210" as="sourcePoint" />
            <mxPoint x="950.21" y="18.256000000000085" as="targetPoint" />
            <Array as="points" />
          </mxGeometry>
        </mxCell>
        <mxCell id="mi494YcEKEmCbfz_SDU5-88" value="" style="endArrow=none;html=1;edgeStyle=orthogonalEdgeStyle;rounded=0;entryX=0.108;entryY=0.01;entryDx=0;entryDy=0;entryPerimeter=0;startArrow=none;" parent="WIyWlLk6GJQsqaUBKTNV-1" edge="1">
          <mxGeometry relative="1" as="geometry">
            <mxPoint x="410" y="40" as="sourcePoint" />
            <mxPoint x="409.70000000000005" y="42.16000000000008" as="targetPoint" />
            <Array as="points" />
          </mxGeometry>
        </mxCell>
        <mxCell id="mi494YcEKEmCbfz_SDU5-104" value="de un" style="text;strokeColor=none;fillColor=none;align=left;verticalAlign=top;spacingLeft=4;spacingRight=4;overflow=hidden;rotatable=0;points=[[0,0.5],[1,0.5]];portConstraint=eastwest;whiteSpace=wrap;html=1;" parent="WIyWlLk6GJQsqaUBKTNV-1" vertex="1">
          <mxGeometry x="837" y="180" width="43" height="26" as="geometry" />
        </mxCell>
        <mxCell id="mi494YcEKEmCbfz_SDU5-105" value="0..*" style="text;strokeColor=none;fillColor=none;align=left;verticalAlign=top;spacingLeft=4;spacingRight=4;overflow=hidden;rotatable=0;points=[[0,0.5],[1,0.5]];portConstraint=eastwest;whiteSpace=wrap;html=1;" parent="WIyWlLk6GJQsqaUBKTNV-1" vertex="1">
          <mxGeometry x="777" y="256" width="30" height="26" as="geometry" />
        </mxCell>
        <mxCell id="mi494YcEKEmCbfz_SDU5-109" value="" style="endArrow=diamondThin;endFill=0;endSize=24;html=1;rounded=0;entryX=0.015;entryY=0.8;entryDx=0;entryDy=0;entryPerimeter=0;exitX=1.008;exitY=0.295;exitDx=0;exitDy=0;exitPerimeter=0;" parent="WIyWlLk6GJQsqaUBKTNV-1" source="mi494YcEKEmCbfz_SDU5-7" target="ErS3TPGjbUPUeidKYd08-66" edge="1">
          <mxGeometry width="160" relative="1" as="geometry">
            <mxPoint x="480" y="-40" as="sourcePoint" />
            <mxPoint x="947.27" y="-35.81600000000003" as="targetPoint" />
          </mxGeometry>
        </mxCell>
        <mxCell id="mi494YcEKEmCbfz_SDU5-110" value="de un" style="text;strokeColor=none;fillColor=none;align=left;verticalAlign=top;spacingLeft=4;spacingRight=4;overflow=hidden;rotatable=0;points=[[0,0.5],[1,0.5]];portConstraint=eastwest;whiteSpace=wrap;html=1;" parent="WIyWlLk6GJQsqaUBKTNV-1" vertex="1">
          <mxGeometry x="770" y="100" width="50" height="26" as="geometry" />
        </mxCell>
        <mxCell id="mi494YcEKEmCbfz_SDU5-111" value="0..*" style="text;strokeColor=none;fillColor=none;align=left;verticalAlign=top;spacingLeft=4;spacingRight=4;overflow=hidden;rotatable=0;points=[[0,0.5],[1,0.5]];portConstraint=eastwest;whiteSpace=wrap;html=1;" parent="WIyWlLk6GJQsqaUBKTNV-1" vertex="1">
          <mxGeometry x="610" y="170" width="30" height="26" as="geometry" />
        </mxCell>
        <mxCell id="mi494YcEKEmCbfz_SDU5-112" value="1..*" style="text;strokeColor=none;fillColor=none;align=left;verticalAlign=top;spacingLeft=4;spacingRight=4;overflow=hidden;rotatable=0;points=[[0,0.5],[1,0.5]];portConstraint=eastwest;whiteSpace=wrap;html=1;" parent="WIyWlLk6GJQsqaUBKTNV-1" vertex="1">
          <mxGeometry x="920" y="20" width="30" height="26" as="geometry" />
        </mxCell>
        <mxCell id="ZHqrVNl99UNAIZFrbYKN-18" value="MenúDelDía" style="swimlane;fontStyle=1;align=center;verticalAlign=top;childLayout=stackLayout;horizontal=1;startSize=26;horizontalStack=0;resizeParent=1;resizeParentMax=0;resizeLast=0;collapsible=1;marginBottom=0;whiteSpace=wrap;html=1;" parent="WIyWlLk6GJQsqaUBKTNV-1" vertex="1">
          <mxGeometry x="1170" y="500" width="240" height="140" as="geometry" />
        </mxCell>
        <mxCell id="ZHqrVNl99UNAIZFrbYKN-19" value="- primeros: ArrayList&amp;lt;PrimerPlato&amp;gt;&lt;br style=&quot;border-color: var(--border-color);&quot;&gt;- segundos: ArrayList&amp;lt;SegundoPlato&amp;gt;&lt;br style=&quot;border-color: var(--border-color);&quot;&gt;- postres: ArrayList&amp;lt;Postre&amp;gt;&lt;br&gt;- bebidas: ArrayList&amp;lt;Bebida&amp;gt;" style="text;strokeColor=none;fillColor=none;align=left;verticalAlign=top;spacingLeft=4;spacingRight=4;overflow=hidden;rotatable=0;points=[[0,0.5],[1,0.5]];portConstraint=eastwest;whiteSpace=wrap;html=1;" parent="ZHqrVNl99UNAIZFrbYKN-18" vertex="1">
          <mxGeometry y="26" width="240" height="114" as="geometry" />
        </mxCell>
        <mxCell id="ZHqrVNl99UNAIZFrbYKN-20" value="" style="line;strokeWidth=1;fillColor=none;align=left;verticalAlign=middle;spacingTop=-1;spacingLeft=3;spacingRight=3;rotatable=0;labelPosition=right;points=[];portConstraint=eastwest;strokeColor=inherit;" parent="ZHqrVNl99UNAIZFrbYKN-18" vertex="1">
          <mxGeometry y="140" width="240" as="geometry" />
        </mxCell>
        <mxCell id="ZHqrVNl99UNAIZFrbYKN-21" value="Menú" style="swimlane;fontStyle=1;align=center;verticalAlign=top;childLayout=stackLayout;horizontal=1;startSize=26;horizontalStack=0;resizeParent=1;resizeParentMax=0;resizeLast=0;collapsible=1;marginBottom=0;whiteSpace=wrap;html=1;" parent="WIyWlLk6GJQsqaUBKTNV-1" vertex="1">
          <mxGeometry x="890" y="360" width="190" height="140" as="geometry" />
        </mxCell>
        <mxCell id="ZHqrVNl99UNAIZFrbYKN-22" value="- entrantes: ArrayList&amp;lt;Entrante&amp;gt;" style="text;strokeColor=none;fillColor=none;align=left;verticalAlign=top;spacingLeft=4;spacingRight=4;overflow=hidden;rotatable=0;points=[[0,0.5],[1,0.5]];portConstraint=eastwest;whiteSpace=wrap;html=1;" parent="ZHqrVNl99UNAIZFrbYKN-21" vertex="1">
          <mxGeometry y="26" width="190" height="114" as="geometry" />
        </mxCell>
        <mxCell id="ZHqrVNl99UNAIZFrbYKN-23" value="" style="line;strokeWidth=1;fillColor=none;align=left;verticalAlign=middle;spacingTop=-1;spacingLeft=3;spacingRight=3;rotatable=0;labelPosition=right;points=[];portConstraint=eastwest;strokeColor=inherit;" parent="ZHqrVNl99UNAIZFrbYKN-21" vertex="1">
          <mxGeometry y="140" width="190" as="geometry" />
        </mxCell>
        <mxCell id="ErS3TPGjbUPUeidKYd08-8" value="Extends" style="endArrow=block;endSize=16;endFill=0;html=1;rounded=0;exitX=1;exitY=0.684;exitDx=0;exitDy=0;entryX=0.136;entryY=-0.023;entryDx=0;entryDy=0;entryPerimeter=0;exitPerimeter=0;" parent="WIyWlLk6GJQsqaUBKTNV-1" source="ZHqrVNl99UNAIZFrbYKN-22" target="ZHqrVNl99UNAIZFrbYKN-18" edge="1">
          <mxGeometry width="160" relative="1" as="geometry">
            <mxPoint x="1180" y="697" as="sourcePoint" />
            <mxPoint x="1082" y="654" as="targetPoint" />
          </mxGeometry>
        </mxCell>
        <mxCell id="ErS3TPGjbUPUeidKYd08-13" value="Producto" style="swimlane;fontStyle=1;align=center;verticalAlign=top;childLayout=stackLayout;horizontal=1;startSize=26;horizontalStack=0;resizeParent=1;resizeParentMax=0;resizeLast=0;collapsible=1;marginBottom=0;whiteSpace=wrap;html=1;" parent="WIyWlLk6GJQsqaUBKTNV-1" vertex="1">
          <mxGeometry x="1490" y="-74" width="190" height="140" as="geometry" />
        </mxCell>
        <mxCell id="ErS3TPGjbUPUeidKYd08-14" value="- nombre: String&lt;br&gt;. precio : Float&lt;br&gt;- entrantes: ArrayList&amp;lt;String&amp;gt;&lt;br&gt;- primeros: ArrayList&amp;lt;String&amp;gt;&lt;br&gt;- segundos: ArrayList&amp;lt;String&amp;gt;&lt;br&gt;- postres: ArrayList&amp;lt;String&amp;gt;" style="text;strokeColor=none;fillColor=none;align=left;verticalAlign=top;spacingLeft=4;spacingRight=4;overflow=hidden;rotatable=0;points=[[0,0.5],[1,0.5]];portConstraint=eastwest;whiteSpace=wrap;html=1;" parent="ErS3TPGjbUPUeidKYd08-13" vertex="1">
          <mxGeometry y="26" width="190" height="114" as="geometry" />
        </mxCell>
        <mxCell id="ErS3TPGjbUPUeidKYd08-15" value="" style="line;strokeWidth=1;fillColor=none;align=left;verticalAlign=middle;spacingTop=-1;spacingLeft=3;spacingRight=3;rotatable=0;labelPosition=right;points=[];portConstraint=eastwest;strokeColor=inherit;" parent="ErS3TPGjbUPUeidKYd08-13" vertex="1">
          <mxGeometry y="140" width="190" as="geometry" />
        </mxCell>
        <mxCell id="ErS3TPGjbUPUeidKYd08-16" value="Entrante" style="swimlane;fontStyle=1;align=center;verticalAlign=top;childLayout=stackLayout;horizontal=1;startSize=26;horizontalStack=0;resizeParent=1;resizeParentMax=0;resizeLast=0;collapsible=1;marginBottom=0;whiteSpace=wrap;html=1;" parent="WIyWlLk6GJQsqaUBKTNV-1" vertex="1">
          <mxGeometry x="1290" y="72" width="110" height="70" as="geometry" />
        </mxCell>
        <mxCell id="ErS3TPGjbUPUeidKYd08-17" value="- esFrio: boolean&lt;br&gt;" style="text;strokeColor=none;fillColor=none;align=left;verticalAlign=top;spacingLeft=4;spacingRight=4;overflow=hidden;rotatable=0;points=[[0,0.5],[1,0.5]];portConstraint=eastwest;whiteSpace=wrap;html=1;" parent="ErS3TPGjbUPUeidKYd08-16" vertex="1">
          <mxGeometry y="26" width="110" height="44" as="geometry" />
        </mxCell>
        <mxCell id="ErS3TPGjbUPUeidKYd08-18" value="" style="line;strokeWidth=1;fillColor=none;align=left;verticalAlign=middle;spacingTop=-1;spacingLeft=3;spacingRight=3;rotatable=0;labelPosition=right;points=[];portConstraint=eastwest;strokeColor=inherit;" parent="ErS3TPGjbUPUeidKYd08-16" vertex="1">
          <mxGeometry y="70" width="110" as="geometry" />
        </mxCell>
        <mxCell id="ErS3TPGjbUPUeidKYd08-29" value="Postre" style="swimlane;fontStyle=1;align=center;verticalAlign=top;childLayout=stackLayout;horizontal=1;startSize=26;horizontalStack=0;resizeParent=1;resizeParentMax=0;resizeLast=0;collapsible=1;marginBottom=0;whiteSpace=wrap;html=1;" parent="WIyWlLk6GJQsqaUBKTNV-1" vertex="1">
          <mxGeometry x="1660" y="268" width="120" height="60" as="geometry" />
        </mxCell>
        <mxCell id="ErS3TPGjbUPUeidKYd08-30" value="-esFrio: boolean" style="text;strokeColor=none;fillColor=none;align=left;verticalAlign=top;spacingLeft=4;spacingRight=4;overflow=hidden;rotatable=0;points=[[0,0.5],[1,0.5]];portConstraint=eastwest;whiteSpace=wrap;html=1;" parent="ErS3TPGjbUPUeidKYd08-29" vertex="1">
          <mxGeometry y="26" width="120" height="34" as="geometry" />
        </mxCell>
        <mxCell id="ErS3TPGjbUPUeidKYd08-31" value="" style="line;strokeWidth=1;fillColor=none;align=left;verticalAlign=middle;spacingTop=-1;spacingLeft=3;spacingRight=3;rotatable=0;labelPosition=right;points=[];portConstraint=eastwest;strokeColor=inherit;" parent="ErS3TPGjbUPUeidKYd08-29" vertex="1">
          <mxGeometry y="60" width="120" as="geometry" />
        </mxCell>
        <mxCell id="ErS3TPGjbUPUeidKYd08-32" value="Bebida" style="swimlane;fontStyle=1;align=center;verticalAlign=top;childLayout=stackLayout;horizontal=1;startSize=26;horizontalStack=0;resizeParent=1;resizeParentMax=0;resizeLast=0;collapsible=1;marginBottom=0;whiteSpace=wrap;html=1;" parent="WIyWlLk6GJQsqaUBKTNV-1" vertex="1">
          <mxGeometry x="1815" y="222" width="160" height="60" as="geometry" />
        </mxCell>
        <mxCell id="ErS3TPGjbUPUeidKYd08-33" value="- esAlcoholica: boolean" style="text;strokeColor=none;fillColor=none;align=left;verticalAlign=top;spacingLeft=4;spacingRight=4;overflow=hidden;rotatable=0;points=[[0,0.5],[1,0.5]];portConstraint=eastwest;whiteSpace=wrap;html=1;" parent="ErS3TPGjbUPUeidKYd08-32" vertex="1">
          <mxGeometry y="26" width="160" height="34" as="geometry" />
        </mxCell>
        <mxCell id="ErS3TPGjbUPUeidKYd08-34" value="" style="line;strokeWidth=1;fillColor=none;align=left;verticalAlign=middle;spacingTop=-1;spacingLeft=3;spacingRight=3;rotatable=0;labelPosition=right;points=[];portConstraint=eastwest;strokeColor=inherit;" parent="ErS3TPGjbUPUeidKYd08-32" vertex="1">
          <mxGeometry y="60" width="160" as="geometry" />
        </mxCell>
        <mxCell id="ErS3TPGjbUPUeidKYd08-35" value="Extends" style="endArrow=block;endSize=16;endFill=0;html=1;rounded=0;exitX=0.5;exitY=0;exitDx=0;exitDy=0;entryX=0.556;entryY=0.997;entryDx=0;entryDy=0;entryPerimeter=0;" parent="WIyWlLk6GJQsqaUBKTNV-1" source="nS3wKMYzJJyJGZNExJYw-5" target="ErS3TPGjbUPUeidKYd08-14" edge="1">
          <mxGeometry width="160" relative="1" as="geometry">
            <mxPoint x="1903.1900000000005" y="249.40200000000004" as="sourcePoint" />
            <mxPoint x="1950" y="180" as="targetPoint" />
          </mxGeometry>
        </mxCell>
        <mxCell id="ErS3TPGjbUPUeidKYd08-36" value="Extends" style="endArrow=block;endSize=16;endFill=0;html=1;rounded=0;exitX=0.573;exitY=-0.002;exitDx=0;exitDy=0;entryX=0.919;entryY=1.044;entryDx=0;entryDy=0;entryPerimeter=0;exitPerimeter=0;" parent="WIyWlLk6GJQsqaUBKTNV-1" source="ErS3TPGjbUPUeidKYd08-29" target="ErS3TPGjbUPUeidKYd08-14" edge="1">
          <mxGeometry width="160" relative="1" as="geometry">
            <mxPoint x="1913" y="257" as="sourcePoint" />
            <mxPoint x="1870" y="210" as="targetPoint" />
          </mxGeometry>
        </mxCell>
        <mxCell id="ErS3TPGjbUPUeidKYd08-37" value="Extends" style="endArrow=block;endSize=16;endFill=0;html=1;rounded=0;exitX=0.017;exitY=0.151;exitDx=0;exitDy=0;entryX=1.009;entryY=0.63;entryDx=0;entryDy=0;entryPerimeter=0;exitPerimeter=0;" parent="WIyWlLk6GJQsqaUBKTNV-1" source="ErS3TPGjbUPUeidKYd08-32" target="ErS3TPGjbUPUeidKYd08-14" edge="1">
          <mxGeometry width="160" relative="1" as="geometry">
            <mxPoint x="2144" y="350" as="sourcePoint" />
            <mxPoint x="1950" y="164" as="targetPoint" />
          </mxGeometry>
        </mxCell>
        <mxCell id="ErS3TPGjbUPUeidKYd08-38" value="Extends" style="endArrow=block;endSize=16;endFill=0;html=1;rounded=0;exitX=0.75;exitY=0;exitDx=0;exitDy=0;entryX=0.205;entryY=1.031;entryDx=0;entryDy=0;entryPerimeter=0;" parent="WIyWlLk6GJQsqaUBKTNV-1" source="nS3wKMYzJJyJGZNExJYw-1" target="ErS3TPGjbUPUeidKYd08-14" edge="1">
          <mxGeometry width="160" relative="1" as="geometry">
            <mxPoint x="1702.500000000001" y="396" as="sourcePoint" />
            <mxPoint x="1570" y="140" as="targetPoint" />
          </mxGeometry>
        </mxCell>
        <mxCell id="ErS3TPGjbUPUeidKYd08-39" value="Extends" style="endArrow=block;endSize=16;endFill=0;html=1;rounded=0;exitX=1.017;exitY=0.645;exitDx=0;exitDy=0;entryX=0;entryY=0.5;entryDx=0;entryDy=0;exitPerimeter=0;" parent="WIyWlLk6GJQsqaUBKTNV-1" source="ErS3TPGjbUPUeidKYd08-17" target="ErS3TPGjbUPUeidKYd08-14" edge="1">
          <mxGeometry width="160" relative="1" as="geometry">
            <mxPoint x="1610" y="316" as="sourcePoint" />
            <mxPoint x="1666" y="120" as="targetPoint" />
          </mxGeometry>
        </mxCell>
        <mxCell id="ErS3TPGjbUPUeidKYd08-40" value="GerenteODueño" style="swimlane;fontStyle=1;align=center;verticalAlign=top;childLayout=stackLayout;horizontal=1;startSize=26;horizontalStack=0;resizeParent=1;resizeParentMax=0;resizeLast=0;collapsible=1;marginBottom=0;whiteSpace=wrap;html=1;" parent="WIyWlLk6GJQsqaUBKTNV-1" vertex="1">
          <mxGeometry x="662" y="-140" width="200" height="180" as="geometry" />
        </mxCell>
        <mxCell id="ErS3TPGjbUPUeidKYd08-42" value="" style="line;strokeWidth=1;fillColor=none;align=left;verticalAlign=middle;spacingTop=-1;spacingLeft=3;spacingRight=3;rotatable=0;labelPosition=right;points=[];portConstraint=eastwest;strokeColor=inherit;" parent="ErS3TPGjbUPUeidKYd08-40" vertex="1">
          <mxGeometry y="26" width="200" height="8" as="geometry" />
        </mxCell>
        <mxCell id="ErS3TPGjbUPUeidKYd08-43" value="- añadirTipoComida()&lt;br style=&quot;border-color: var(--border-color);&quot;&gt;- eliminarTipoComida()&lt;br style=&quot;border-color: var(--border-color);&quot;&gt;- cambiarMenú()&lt;br style=&quot;border-color: var(--border-color);&quot;&gt;- añadirTrabajador()&lt;br style=&quot;border-color: var(--border-color);&quot;&gt;- eliminarTrabajador()&lt;br style=&quot;border-color: var(--border-color);&quot;&gt;- añadirMesa()&lt;br style=&quot;border-color: var(--border-color);&quot;&gt;- eliminarMesa()&lt;br style=&quot;border-color: var(--border-color);&quot;&gt;" style="text;strokeColor=none;fillColor=none;align=left;verticalAlign=top;spacingLeft=4;spacingRight=4;overflow=hidden;rotatable=0;points=[[0,0.5],[1,0.5]];portConstraint=eastwest;whiteSpace=wrap;html=1;" parent="ErS3TPGjbUPUeidKYd08-40" vertex="1">
          <mxGeometry y="34" width="200" height="146" as="geometry" />
        </mxCell>
        <mxCell id="ErS3TPGjbUPUeidKYd08-44" value="Extends" style="endArrow=block;endSize=16;endFill=0;html=1;rounded=0;exitX=0.001;exitY=0.408;exitDx=0;exitDy=0;entryX=0.571;entryY=-0.004;entryDx=0;entryDy=0;entryPerimeter=0;exitPerimeter=0;" parent="WIyWlLk6GJQsqaUBKTNV-1" source="ErS3TPGjbUPUeidKYd08-43" target="mi494YcEKEmCbfz_SDU5-4" edge="1">
          <mxGeometry width="160" relative="1" as="geometry">
            <mxPoint x="580" y="-136.51" as="sourcePoint" />
            <mxPoint x="471.60000000000036" y="-163.29999999999973" as="targetPoint" />
          </mxGeometry>
        </mxCell>
        <mxCell id="ErS3TPGjbUPUeidKYd08-45" value="" style="endArrow=open;endFill=1;endSize=12;html=1;rounded=0;exitX=0.098;exitY=1.034;exitDx=0;exitDy=0;exitPerimeter=0;" parent="WIyWlLk6GJQsqaUBKTNV-1" source="ErS3TPGjbUPUeidKYd08-17" target="ZHqrVNl99UNAIZFrbYKN-21" edge="1">
          <mxGeometry width="160" relative="1" as="geometry">
            <mxPoint x="1383" y="407" as="sourcePoint" />
            <mxPoint x="1400" y="536" as="targetPoint" />
          </mxGeometry>
        </mxCell>
        <mxCell id="ErS3TPGjbUPUeidKYd08-47" value="1..*" style="text;strokeColor=none;fillColor=none;align=left;verticalAlign=top;spacingLeft=4;spacingRight=4;overflow=hidden;rotatable=0;points=[[0,0.5],[1,0.5]];portConstraint=eastwest;whiteSpace=wrap;html=1;" parent="WIyWlLk6GJQsqaUBKTNV-1" vertex="1">
          <mxGeometry x="1250" y="140" width="30" height="26" as="geometry" />
        </mxCell>
        <mxCell id="ErS3TPGjbUPUeidKYd08-48" value="de un" style="text;strokeColor=none;fillColor=none;align=left;verticalAlign=top;spacingLeft=4;spacingRight=4;overflow=hidden;rotatable=0;points=[[0,0.5],[1,0.5]];portConstraint=eastwest;whiteSpace=wrap;html=1;" parent="WIyWlLk6GJQsqaUBKTNV-1" vertex="1">
          <mxGeometry x="1170" y="197" width="50" height="26" as="geometry" />
        </mxCell>
        <mxCell id="ErS3TPGjbUPUeidKYd08-49" value="" style="endArrow=open;endFill=1;endSize=12;html=1;rounded=0;exitX=0;exitY=-0.018;exitDx=0;exitDy=0;exitPerimeter=0;entryX=0.423;entryY=-0.031;entryDx=0;entryDy=0;entryPerimeter=0;" parent="WIyWlLk6GJQsqaUBKTNV-1" source="nS3wKMYzJJyJGZNExJYw-2" target="ZHqrVNl99UNAIZFrbYKN-18" edge="1">
          <mxGeometry width="160" relative="1" as="geometry">
            <mxPoint x="1555.8200000000002" y="398.52199999999993" as="sourcePoint" />
            <mxPoint x="1357" y="670" as="targetPoint" />
          </mxGeometry>
        </mxCell>
        <mxCell id="ErS3TPGjbUPUeidKYd08-50" value="1..*" style="text;strokeColor=none;fillColor=none;align=left;verticalAlign=top;spacingLeft=4;spacingRight=4;overflow=hidden;rotatable=0;points=[[0,0.5],[1,0.5]];portConstraint=eastwest;whiteSpace=wrap;html=1;" parent="WIyWlLk6GJQsqaUBKTNV-1" vertex="1">
          <mxGeometry x="1330" y="220" width="30" height="26" as="geometry" />
        </mxCell>
        <mxCell id="ErS3TPGjbUPUeidKYd08-52" value="de un" style="text;strokeColor=none;fillColor=none;align=left;verticalAlign=top;spacingLeft=4;spacingRight=4;overflow=hidden;rotatable=0;points=[[0,0.5],[1,0.5]];portConstraint=eastwest;whiteSpace=wrap;html=1;" parent="WIyWlLk6GJQsqaUBKTNV-1" vertex="1">
          <mxGeometry x="1290" y="294" width="50" height="26" as="geometry" />
        </mxCell>
        <mxCell id="ErS3TPGjbUPUeidKYd08-53" value="" style="endArrow=open;endFill=1;endSize=12;html=1;rounded=0;exitX=0.406;exitY=1.082;exitDx=0;exitDy=0;entryX=0.554;entryY=0.01;entryDx=0;entryDy=0;exitPerimeter=0;entryPerimeter=0;" parent="WIyWlLk6GJQsqaUBKTNV-1" source="nS3wKMYzJJyJGZNExJYw-6" target="ZHqrVNl99UNAIZFrbYKN-18" edge="1">
          <mxGeometry width="160" relative="1" as="geometry">
            <mxPoint x="1821.4900000000002" y="395.24400000000014" as="sourcePoint" />
            <mxPoint x="1630" y="692" as="targetPoint" />
            <Array as="points" />
          </mxGeometry>
        </mxCell>
        <mxCell id="ErS3TPGjbUPUeidKYd08-54" value="1..*" style="text;strokeColor=none;fillColor=none;align=left;verticalAlign=top;spacingLeft=4;spacingRight=4;overflow=hidden;rotatable=0;points=[[0,0.5],[1,0.5]];portConstraint=eastwest;whiteSpace=wrap;html=1;" parent="WIyWlLk6GJQsqaUBKTNV-1" vertex="1">
          <mxGeometry x="1490" y="310" width="30" height="26" as="geometry" />
        </mxCell>
        <mxCell id="ErS3TPGjbUPUeidKYd08-55" value="1..*" style="text;strokeColor=none;fillColor=none;align=left;verticalAlign=top;spacingLeft=4;spacingRight=4;overflow=hidden;rotatable=0;points=[[0,0.5],[1,0.5]];portConstraint=eastwest;whiteSpace=wrap;html=1;" parent="WIyWlLk6GJQsqaUBKTNV-1" vertex="1">
          <mxGeometry x="1320" y="444" width="30" height="26" as="geometry" />
        </mxCell>
        <mxCell id="ErS3TPGjbUPUeidKYd08-56" value="de un" style="text;strokeColor=none;fillColor=none;align=left;verticalAlign=top;spacingLeft=4;spacingRight=4;overflow=hidden;rotatable=0;points=[[0,0.5],[1,0.5]];portConstraint=eastwest;whiteSpace=wrap;html=1;" parent="WIyWlLk6GJQsqaUBKTNV-1" vertex="1">
          <mxGeometry x="1420" y="346" width="50" height="26" as="geometry" />
        </mxCell>
        <mxCell id="ErS3TPGjbUPUeidKYd08-57" value="" style="endArrow=open;endFill=1;endSize=12;html=1;rounded=0;exitX=0;exitY=0.373;exitDx=0;exitDy=0;entryX=0.821;entryY=-0.01;entryDx=0;entryDy=0;exitPerimeter=0;entryPerimeter=0;" parent="WIyWlLk6GJQsqaUBKTNV-1" source="ErS3TPGjbUPUeidKYd08-30" target="ZHqrVNl99UNAIZFrbYKN-18" edge="1">
          <mxGeometry width="160" relative="1" as="geometry">
            <mxPoint x="1889" y="470" as="sourcePoint" />
            <mxPoint x="1570" y="752" as="targetPoint" />
            <Array as="points" />
          </mxGeometry>
        </mxCell>
        <mxCell id="ErS3TPGjbUPUeidKYd08-58" value="de un" style="text;strokeColor=none;fillColor=none;align=left;verticalAlign=top;spacingLeft=4;spacingRight=4;overflow=hidden;rotatable=0;points=[[0,0.5],[1,0.5]];portConstraint=eastwest;whiteSpace=wrap;html=1;" parent="WIyWlLk6GJQsqaUBKTNV-1" vertex="1">
          <mxGeometry x="1510" y="360" width="50" height="26" as="geometry" />
        </mxCell>
        <mxCell id="ErS3TPGjbUPUeidKYd08-59" value="1..*" style="text;strokeColor=none;fillColor=none;align=left;verticalAlign=top;spacingLeft=4;spacingRight=4;overflow=hidden;rotatable=0;points=[[0,0.5],[1,0.5]];portConstraint=eastwest;whiteSpace=wrap;html=1;" parent="WIyWlLk6GJQsqaUBKTNV-1" vertex="1">
          <mxGeometry x="1370" y="460" width="30" height="26" as="geometry" />
        </mxCell>
        <mxCell id="ErS3TPGjbUPUeidKYd08-60" value="1..*" style="text;strokeColor=none;fillColor=none;align=left;verticalAlign=top;spacingLeft=4;spacingRight=4;overflow=hidden;rotatable=0;points=[[0,0.5],[1,0.5]];portConstraint=eastwest;whiteSpace=wrap;html=1;" parent="WIyWlLk6GJQsqaUBKTNV-1" vertex="1">
          <mxGeometry x="1610" y="310" width="30" height="26" as="geometry" />
        </mxCell>
        <mxCell id="ErS3TPGjbUPUeidKYd08-61" value="" style="endArrow=open;endFill=1;endSize=12;html=1;rounded=0;exitX=0.429;exitY=1.048;exitDx=0;exitDy=0;entryX=1;entryY=0.133;entryDx=0;entryDy=0;exitPerimeter=0;entryPerimeter=0;" parent="WIyWlLk6GJQsqaUBKTNV-1" source="ErS3TPGjbUPUeidKYd08-33" target="ZHqrVNl99UNAIZFrbYKN-18" edge="1">
          <mxGeometry width="160" relative="1" as="geometry">
            <mxPoint x="2283" y="527" as="sourcePoint" />
            <mxPoint x="1810" y="794" as="targetPoint" />
            <Array as="points">
              <mxPoint x="1640" y="430" />
            </Array>
          </mxGeometry>
        </mxCell>
        <mxCell id="ErS3TPGjbUPUeidKYd08-62" value="de un" style="text;strokeColor=none;fillColor=none;align=left;verticalAlign=top;spacingLeft=4;spacingRight=4;overflow=hidden;rotatable=0;points=[[0,0.5],[1,0.5]];portConstraint=eastwest;whiteSpace=wrap;html=1;" parent="WIyWlLk6GJQsqaUBKTNV-1" vertex="1">
          <mxGeometry x="1630" y="394" width="50" height="26" as="geometry" />
        </mxCell>
        <mxCell id="ErS3TPGjbUPUeidKYd08-63" value="1..*" style="text;strokeColor=none;fillColor=none;align=left;verticalAlign=top;spacingLeft=4;spacingRight=4;overflow=hidden;rotatable=0;points=[[0,0.5],[1,0.5]];portConstraint=eastwest;whiteSpace=wrap;html=1;" parent="WIyWlLk6GJQsqaUBKTNV-1" vertex="1">
          <mxGeometry x="1420" y="474" width="30" height="26" as="geometry" />
        </mxCell>
        <mxCell id="ErS3TPGjbUPUeidKYd08-64" value="1..*" style="text;strokeColor=none;fillColor=none;align=left;verticalAlign=top;spacingLeft=4;spacingRight=4;overflow=hidden;rotatable=0;points=[[0,0.5],[1,0.5]];portConstraint=eastwest;whiteSpace=wrap;html=1;" parent="WIyWlLk6GJQsqaUBKTNV-1" vertex="1">
          <mxGeometry x="1830" y="285" width="30" height="26" as="geometry" />
        </mxCell>
        <mxCell id="ErS3TPGjbUPUeidKYd08-65" value="Negocio" style="swimlane;fontStyle=1;align=center;verticalAlign=top;childLayout=stackLayout;horizontal=1;startSize=26;horizontalStack=0;resizeParent=1;resizeParentMax=0;resizeLast=0;collapsible=1;marginBottom=0;whiteSpace=wrap;html=1;" parent="WIyWlLk6GJQsqaUBKTNV-1" vertex="1">
          <mxGeometry x="960" y="-96" width="200" height="238" as="geometry" />
        </mxCell>
        <mxCell id="ErS3TPGjbUPUeidKYd08-66" value="- nombre: String&amp;nbsp;&lt;br style=&quot;border-color: var(--border-color);&quot;&gt;- cif: String&lt;br style=&quot;border-color: var(--border-color);&quot;&gt;- direccion: String&lt;br style=&quot;border-color: var(--border-color);&quot;&gt;- telefono: int&lt;br style=&quot;border-color: var(--border-color);&quot;&gt;- email: String&lt;br style=&quot;border-color: var(--border-color);&quot;&gt;- tipoComida: ArrayList&amp;lt;Comidas&amp;gt;&lt;br style=&quot;border-color: var(--border-color);&quot;&gt;- menuDelDia: MenúDelDia&lt;br style=&quot;border-color: var(--border-color);&quot;&gt;- menu:Menú" style="text;strokeColor=none;fillColor=none;align=left;verticalAlign=top;spacingLeft=4;spacingRight=4;overflow=hidden;rotatable=0;points=[[0,0.5],[1,0.5]];portConstraint=eastwest;whiteSpace=wrap;html=1;" parent="ErS3TPGjbUPUeidKYd08-65" vertex="1">
          <mxGeometry y="26" width="200" height="142" as="geometry" />
        </mxCell>
        <mxCell id="ErS3TPGjbUPUeidKYd08-67" value="" style="line;strokeWidth=1;fillColor=none;align=left;verticalAlign=middle;spacingTop=-1;spacingLeft=3;spacingRight=3;rotatable=0;labelPosition=right;points=[];portConstraint=eastwest;strokeColor=inherit;" parent="ErS3TPGjbUPUeidKYd08-65" vertex="1">
          <mxGeometry y="168" width="200" height="8" as="geometry" />
        </mxCell>
        <mxCell id="ErS3TPGjbUPUeidKYd08-68" value="- editarMenú()&lt;br&gt;- cambiarMenuDelDía():&amp;nbsp;" style="text;strokeColor=none;fillColor=none;align=left;verticalAlign=top;spacingLeft=4;spacingRight=4;overflow=hidden;rotatable=0;points=[[0,0.5],[1,0.5]];portConstraint=eastwest;whiteSpace=wrap;html=1;" parent="ErS3TPGjbUPUeidKYd08-65" vertex="1">
          <mxGeometry y="176" width="200" height="62" as="geometry" />
        </mxCell>
        <mxCell id="ErS3TPGjbUPUeidKYd08-73" value="de un" style="text;strokeColor=none;fillColor=none;align=left;verticalAlign=top;spacingLeft=4;spacingRight=4;overflow=hidden;rotatable=0;points=[[0,0.5],[1,0.5]];portConstraint=eastwest;whiteSpace=wrap;html=1;" parent="WIyWlLk6GJQsqaUBKTNV-1" vertex="1">
          <mxGeometry x="987" y="257" width="43" height="26" as="geometry" />
        </mxCell>
        <mxCell id="ErS3TPGjbUPUeidKYd08-74" value="1" style="text;strokeColor=none;fillColor=none;align=left;verticalAlign=top;spacingLeft=4;spacingRight=4;overflow=hidden;rotatable=0;points=[[0,0.5],[1,0.5]];portConstraint=eastwest;whiteSpace=wrap;html=1;" parent="WIyWlLk6GJQsqaUBKTNV-1" vertex="1">
          <mxGeometry x="950" y="328" width="30" height="26" as="geometry" />
        </mxCell>
        <mxCell id="ErS3TPGjbUPUeidKYd08-75" value="1" style="text;strokeColor=none;fillColor=none;align=left;verticalAlign=top;spacingLeft=4;spacingRight=4;overflow=hidden;rotatable=0;points=[[0,0.5],[1,0.5]];portConstraint=eastwest;whiteSpace=wrap;html=1;" parent="WIyWlLk6GJQsqaUBKTNV-1" vertex="1">
          <mxGeometry x="1030" y="154" width="30" height="26" as="geometry" />
        </mxCell>
        <mxCell id="ErS3TPGjbUPUeidKYd08-77" value="de un" style="text;strokeColor=none;fillColor=none;align=left;verticalAlign=top;spacingLeft=4;spacingRight=4;overflow=hidden;rotatable=0;points=[[0,0.5],[1,0.5]];portConstraint=eastwest;whiteSpace=wrap;html=1;" parent="WIyWlLk6GJQsqaUBKTNV-1" vertex="1">
          <mxGeometry x="1190" y="328" width="50" height="26" as="geometry" />
        </mxCell>
        <mxCell id="ErS3TPGjbUPUeidKYd08-78" value="1" style="text;strokeColor=none;fillColor=none;align=left;verticalAlign=top;spacingLeft=4;spacingRight=4;overflow=hidden;rotatable=0;points=[[0,0.5],[1,0.5]];portConstraint=eastwest;whiteSpace=wrap;html=1;" parent="WIyWlLk6GJQsqaUBKTNV-1" vertex="1">
          <mxGeometry x="1190" y="450" width="30" height="26" as="geometry" />
        </mxCell>
        <mxCell id="ErS3TPGjbUPUeidKYd08-79" value="1" style="text;strokeColor=none;fillColor=none;align=left;verticalAlign=top;spacingLeft=4;spacingRight=4;overflow=hidden;rotatable=0;points=[[0,0.5],[1,0.5]];portConstraint=eastwest;whiteSpace=wrap;html=1;" parent="WIyWlLk6GJQsqaUBKTNV-1" vertex="1">
          <mxGeometry x="1100" y="154" width="30" height="26" as="geometry" />
        </mxCell>
        <mxCell id="ErS3TPGjbUPUeidKYd08-80" value="" style="endArrow=diamondThin;endFill=1;endSize=24;html=1;rounded=0;exitX=0.25;exitY=0;exitDx=0;exitDy=0;entryX=0.31;entryY=1.016;entryDx=0;entryDy=0;entryPerimeter=0;" parent="WIyWlLk6GJQsqaUBKTNV-1" source="ZHqrVNl99UNAIZFrbYKN-21" target="ErS3TPGjbUPUeidKYd08-68" edge="1">
          <mxGeometry width="160" relative="1" as="geometry">
            <mxPoint x="1200" y="200" as="sourcePoint" />
            <mxPoint x="1360" y="200" as="targetPoint" />
          </mxGeometry>
        </mxCell>
        <mxCell id="ErS3TPGjbUPUeidKYd08-82" value="1" style="text;strokeColor=none;fillColor=none;align=left;verticalAlign=top;spacingLeft=4;spacingRight=4;overflow=hidden;rotatable=0;points=[[0,0.5],[1,0.5]];portConstraint=eastwest;whiteSpace=wrap;html=1;" parent="WIyWlLk6GJQsqaUBKTNV-1" vertex="1">
          <mxGeometry x="1250" y="444" width="30" height="26" as="geometry" />
        </mxCell>
        <mxCell id="ErS3TPGjbUPUeidKYd08-83" value="1" style="text;strokeColor=none;fillColor=none;align=left;verticalAlign=top;spacingLeft=4;spacingRight=4;overflow=hidden;rotatable=0;points=[[0,0.5],[1,0.5]];portConstraint=eastwest;whiteSpace=wrap;html=1;" parent="WIyWlLk6GJQsqaUBKTNV-1" vertex="1">
          <mxGeometry x="1050" y="320" width="30" height="26" as="geometry" />
        </mxCell>
        <mxCell id="ErS3TPGjbUPUeidKYd08-84" value="" style="endArrow=diamondThin;endFill=1;endSize=24;html=1;rounded=0;exitX=0.25;exitY=0;exitDx=0;exitDy=0;" parent="WIyWlLk6GJQsqaUBKTNV-1" source="ZHqrVNl99UNAIZFrbYKN-18" edge="1">
          <mxGeometry width="160" relative="1" as="geometry">
            <mxPoint x="1156" y="547" as="sourcePoint" />
            <mxPoint x="1130" y="140" as="targetPoint" />
          </mxGeometry>
        </mxCell>
        <mxCell id="nS3wKMYzJJyJGZNExJYw-1" value="PrimerPlato" style="swimlane;fontStyle=1;align=center;verticalAlign=top;childLayout=stackLayout;horizontal=1;startSize=26;horizontalStack=0;resizeParent=1;resizeParentMax=0;resizeLast=0;collapsible=1;marginBottom=0;whiteSpace=wrap;html=1;" parent="WIyWlLk6GJQsqaUBKTNV-1" vertex="1">
          <mxGeometry x="1370" y="180" width="120" height="60" as="geometry" />
        </mxCell>
        <mxCell id="nS3wKMYzJJyJGZNExJYw-2" value="- esFrio: boolean&lt;br&gt;" style="text;strokeColor=none;fillColor=none;align=left;verticalAlign=top;spacingLeft=4;spacingRight=4;overflow=hidden;rotatable=0;points=[[0,0.5],[1,0.5]];portConstraint=eastwest;whiteSpace=wrap;html=1;" parent="nS3wKMYzJJyJGZNExJYw-1" vertex="1">
          <mxGeometry y="26" width="120" height="34" as="geometry" />
        </mxCell>
        <mxCell id="nS3wKMYzJJyJGZNExJYw-3" value="" style="line;strokeWidth=1;fillColor=none;align=left;verticalAlign=middle;spacingTop=-1;spacingLeft=3;spacingRight=3;rotatable=0;labelPosition=right;points=[];portConstraint=eastwest;strokeColor=inherit;" parent="nS3wKMYzJJyJGZNExJYw-1" vertex="1">
          <mxGeometry y="60" width="120" as="geometry" />
        </mxCell>
        <mxCell id="nS3wKMYzJJyJGZNExJYw-5" value="SegundoPlato" style="swimlane;fontStyle=1;align=center;verticalAlign=top;childLayout=stackLayout;horizontal=1;startSize=26;horizontalStack=0;resizeParent=1;resizeParentMax=0;resizeLast=0;collapsible=1;marginBottom=0;whiteSpace=wrap;html=1;" parent="WIyWlLk6GJQsqaUBKTNV-1" vertex="1">
          <mxGeometry x="1510" y="240" width="120" height="60" as="geometry" />
        </mxCell>
        <mxCell id="nS3wKMYzJJyJGZNExJYw-6" value="- esFrio: boolean&lt;br&gt;" style="text;strokeColor=none;fillColor=none;align=left;verticalAlign=top;spacingLeft=4;spacingRight=4;overflow=hidden;rotatable=0;points=[[0,0.5],[1,0.5]];portConstraint=eastwest;whiteSpace=wrap;html=1;" parent="nS3wKMYzJJyJGZNExJYw-5" vertex="1">
          <mxGeometry y="26" width="120" height="34" as="geometry" />
        </mxCell>
        <mxCell id="nS3wKMYzJJyJGZNExJYw-7" value="" style="line;strokeWidth=1;fillColor=none;align=left;verticalAlign=middle;spacingTop=-1;spacingLeft=3;spacingRight=3;rotatable=0;labelPosition=right;points=[];portConstraint=eastwest;strokeColor=inherit;" parent="nS3wKMYzJJyJGZNExJYw-5" vertex="1">
          <mxGeometry y="60" width="120" as="geometry" />
        </mxCell>
      </root>
    </mxGraphModel>
  </diagram>
</mxfile>
